
0
 
0
Rise Of The Guardians 2012 300MB BrRip - the.HH
seeders: 2leechers: 7
DOWNLOAD TORRENT
Added on Mar 3, 2013 by  the.HH284 in Movies &gt; Highres Movies	
Downloaded once.
MAIN
 
TECHNICAL
 
TRAILER
 
COMMENTS
add to bookmarks add to rss subscribe to Rise of the Guardians

Bookmarks: add movie to bookmarks
IMDB link: 1446192link: Rise of the Guardians
Detected quality: x264
Genres: Animation, Adventure
 
Movie: Rise of the Guardians
Release date: 21 November 2012
Language: English
Subtitles: 
Cast: Jude Law, Alec Baldwin, Isla Fisher, Hugh Jackman, Chris Pine, Dakota Goyo and others
Available in versions:
1080P
720P
BLU-RAY
BDRIP
HDRIP
DVD
DVDRIP
X264
SCREENER
TELESYNC
CAM
Rise Of The Guardians 2012 300MB BrRip - the.HH (Size: 299.43 MB)
 		Rise Of The Guardians 2012 300MB BrRip - the.HH.mp4	299.43 MB
Description
www.imdb.com/title/tt1446192/
General
Complete name : F:moviesRise Of The Guardians 2012 300MB BrRip - the.HH.mp4
Format : MPEG-4
Format profile : Base Media
Codec ID : isom
File size : 299 MiB
Duration : 1h 37mn
Overall bit rate mode : Variable
Overall bit rate : 431 Kbps


Video
ID : 1
Format : AVC
Format/Info : Advanced Video Codec
Format profile : High@L3.0
Format settings, CABAC : Yes
Format settings, ReFrames : 4 frames
Codec ID : avc1
Codec ID/Info : Advanced Video Coding
Duration : 1h 37mn
Bit rate : 364 Kbps
Maximum bit rate : 1 953 Kbps
Width : 720 pixels
Height : 400 pixels
Display aspect ratio : 16:9
Frame rate mode : Constant
Frame rate : 23.976 fps
Color space : YUV
Chroma subsampling : 4:2:0
Bit depth : 8 bits
Scan type : Progressive
Bits/(Pixel*Frame) : 0.053
Stream size : 253 MiB (84%)

Audio
ID : 2
Format : AAC
Format/Info : Advanced Audio Codec
Format profile : HE-AAC / LC
Codec ID : 40
Duration : 1h 37mn
Bit rate mode : Variable
Bit rate : 63.8 Kbps
Maximum bit rate : 118 Kbps
Channel(s) : 2 channels
Channel positions : Front: L R
Sampling rate : 48.0 KHz / 24.0 KHz
Compression mode : Lossy
Stream size : 44.4 MiB (15%)
Language : English